<svg width="311" height="56" viewBox="0 0 311 56" fill="none" xmlns="http://www.w3.org/2000/svg">
<path d="M35.9223 33.105C35.2223 33.105 34.5923 32.985 34.0323 32.745C33.4723 32.495 33.0323 32.145 32.7123 31.695C32.3923 31.245 32.2323 30.72 32.2323 30.12H34.0623C34.1023 30.57 34.2773 30.94 34.5873 31.23C34.9073 31.52 35.3523 31.665 35.9223 31.665C36.5123 31.665 36.9723 31.525 37.3023 31.245C37.6323 30.955 37.7973 30.585 37.7973 30.135C37.7973 29.785 37.6923 29.5 37.4823 29.28C37.2823 29.06 37.0273 28.89 36.7173 28.77C36.4173 28.65 35.9973 28.52 35.4573 28.38C34.7773 28.2 34.2223 28.02 33.7923 27.84C33.3723 27.65 33.0123 27.36 32.7123 26.97C32.4123 26.58 32.2623 26.06 32.2623 25.41C32.2623 24.81 32.4123 24.285 32.7123 23.835C33.0123 23.385 33.4323 23.04 33.9723 22.8C34.5123 22.56 35.1373 22.44 35.8473 22.44C36.8573 22.44 37.6823 22.695 38.3223 23.205C38.9723 23.705 39.3323 24.395 39.4023 25.275H37.5123C37.4823 24.895 37.3023 24.57 36.9723 24.3C36.6423 24.03 36.2073 23.895 35.6673 23.895C35.1773 23.895 34.7773 24.02 34.4673 24.27C34.1573 24.52 34.0023 24.88 34.0023 25.35C34.0023 25.67 34.0973 25.935 34.2873 26.145C34.4873 26.345 34.7373 26.505 35.0373 26.625C35.3373 26.745 35.7473 26.875 36.2673 27.015C36.9573 27.205 37.5173 27.395 37.9473 27.585C38.3873 27.775 38.7573 28.07 39.0573 28.47C39.3673 28.86 39.5223 29.385 39.5223 30.045C39.5223 30.575 39.3773 31.075 39.0873 31.545C38.8073 32.015 38.3923 32.395 37.8423 32.685C37.3023 32.965 36.6623 33.105 35.9223 33.105ZM49.115 28.665C49.115 28.975 49.095 29.255 49.055 29.505H42.74C42.79 30.165 43.035 30.695 43.475 31.095C43.915 31.495 44.455 31.695 45.095 31.695C46.015 31.695 46.665 31.31 47.045 30.54H48.89C48.64 31.3 48.185 31.925 47.525 32.415C46.875 32.895 46.065 33.135 45.095 33.135C44.305 33.135 43.595 32.96 42.965 32.61C42.345 32.25 41.855 31.75 41.495 31.11C41.145 30.46 40.97 29.71 40.97 28.86C40.97 28.01 41.14 27.265 41.48 26.625C41.83 25.975 42.315 25.475 42.935 25.125C43.565 24.775 44.285 24.6 45.095 24.6C45.875 24.6 46.57 24.77 47.18 25.11C47.79 25.45 48.265 25.93 48.605 26.55C48.945 27.16 49.115 27.865 49.115 28.665ZM47.33 28.125C47.32 27.495 47.095 26.99 46.655 26.61C46.215 26.23 45.67 26.04 45.02 26.04C44.43 26.04 43.925 26.23 43.505 26.61C43.085 26.98 42.835 27.485 42.755 28.125H47.33ZM58.3729 28.665C58.3729 28.975 58.3529 29.255 58.3129 29.505H51.9979C52.0479 30.165 52.2929 30.695 52.7329 31.095C53.1729 31.495 53.7129 31.695 54.3529 31.695C55.2729 31.695 55.9229 31.31 56.3029 30.54H58.1479C57.8979 31.3 57.4429 31.925 56.7829 32.415C56.1329 32.895 55.3229 33.135 54.3529 33.135C53.5629 33.135 52.8529 32.96 52.2229 32.61C51.6029 32.25 51.1129 31.75 50.7529 31.11C50.4029 30.46 50.2279 29.71 50.2279 28.86C50.2279 28.01 50.3979 27.265 50.7379 26.625C51.0879 25.975 51.5729 25.475 52.1929 25.125C52.8229 24.775 53.5429 24.6 54.3529 24.6C55.1329 24.6 55.8279 24.77 56.4379 25.11C57.0479 25.45 57.5229 25.93 57.8629 26.55C58.2029 27.16 58.3729 27.865 58.3729 28.665ZM56.5879 28.125C56.5779 27.495 56.3529 26.99 55.9129 26.61C55.4729 26.23 54.9279 26.04 54.2779 26.04C53.6879 26.04 53.1829 26.23 52.7629 26.61C52.3429 26.98 52.0929 27.485 52.0129 28.125H56.5879ZM65.6621 21.9V33H63.9521V21.9H65.6621ZM68.7772 23.64C68.4672 23.64 68.2072 23.535 67.9972 23.325C67.7872 23.115 67.6822 22.855 67.6822 22.545C67.6822 22.235 67.7872 21.975 67.9972 21.765C68.2072 21.555 68.4672 21.45 68.7772 21.45C69.0772 21.45 69.3322 21.555 69.5422 21.765C69.7522 21.975 69.8572 22.235 69.8572 22.545C69.8572 22.855 69.7522 23.115 69.5422 23.325C69.3322 23.535 69.0772 23.64 68.7772 23.64ZM69.6172 24.735V33H67.9072V24.735H69.6172ZM75.0573 31.47L77.3973 24.735H79.2123L76.0623 33H74.0223L70.8873 24.735H72.7173L75.0573 31.47ZM88.0799 28.665C88.0799 28.975 88.0599 29.255 88.0199 29.505H81.7049C81.7549 30.165 81.9999 30.695 82.4399 31.095C82.8799 31.495 83.4199 31.695 84.0599 31.695C84.9799 31.695 85.6299 31.31 86.0099 30.54H87.8549C87.6049 31.3 87.1499 31.925 86.4899 32.415C85.8399 32.895 85.0299 33.135 84.0599 33.135C83.2699 33.135 82.5599 32.96 81.9299 32.61C81.3099 32.25 80.8199 31.75 80.4599 31.11C80.1099 30.46 79.9349 29.71 79.9349 28.86C79.9349 28.01 80.1049 27.265 80.4449 26.625C80.7949 25.975 81.2799 25.475 81.8999 25.125C82.5299 24.775 83.2499 24.6 84.0599 24.6C84.8399 24.6 85.5349 24.77 86.1449 25.11C86.7549 25.45 87.2299 25.93 87.5699 26.55C87.9099 27.16 88.0799 27.865 88.0799 28.665ZM86.2949 28.125C86.2849 27.495 86.0599 26.99 85.6199 26.61C85.1799 26.23 84.6349 26.04 83.9849 26.04C83.3949 26.04 82.8899 26.23 82.4699 26.61C82.0499 26.98 81.7999 27.485 81.7199 28.125H86.2949Z" fill="#396DF2"/>
<path fill-rule="evenodd" clip-rule="evenodd" d="M104 28C104 24.134 107.134 21 111 21C111.552 21 112 20.5523 112 20C112 19.4477 111.552 19 111 19C106.029 19 102 23.0294 102 28C102 32.9706 106.029 37 111 37C115.971 37 120 32.9706 120 28C120 27.4477 119.552 27 119 27C118.448 27 118 27.4477 118 28C118 31.866 114.866 35 111 35C107.134 35 104 31.866 104 28ZM115 19C114.448 19 114 19.4477 114 20C114 20.5523 114.448 21 115 21H116.586L110.293 27.2929C109.902 27.6834 109.902 28.3166 110.293 28.7071C110.683 29.0976 111.317 29.0976 111.707 28.7071L118 22.4142V24C118 24.5523 118.448 25 119 25C119.552 25 120 24.5523 120 24V20C120 19.4477 119.552 19 119 19H115Z" fill="#6070FF"/>
<rect x="9.5" y="4.5" width="135" height="47" rx="7.5" stroke="#6070FF"/>
<path d="M175.664 33.105C174.964 33.105 174.334 32.985 173.774 32.745C173.214 32.495 172.774 32.145 172.454 31.695C172.134 31.245 171.974 30.72 171.974 30.12H173.804C173.844 30.57 174.019 30.94 174.329 31.23C174.649 31.52 175.094 31.665 175.664 31.665C176.254 31.665 176.714 31.525 177.044 31.245C177.374 30.955 177.539 30.585 177.539 30.135C177.539 29.785 177.434 29.5 177.224 29.28C177.024 29.06 176.769 28.89 176.459 28.77C176.159 28.65 175.739 28.52 175.199 28.38C174.519 28.2 173.964 28.02 173.534 27.84C173.114 27.65 172.754 27.36 172.454 26.97C172.154 26.58 172.004 26.06 172.004 25.41C172.004 24.81 172.154 24.285 172.454 23.835C172.754 23.385 173.174 23.04 173.714 22.8C174.254 22.56 174.879 22.44 175.589 22.44C176.599 22.44 177.424 22.695 178.064 23.205C178.714 23.705 179.074 24.395 179.144 25.275H177.254C177.224 24.895 177.044 24.57 176.714 24.3C176.384 24.03 175.949 23.895 175.409 23.895C174.919 23.895 174.519 24.02 174.209 24.27C173.899 24.52 173.744 24.88 173.744 25.35C173.744 25.67 173.839 25.935 174.029 26.145C174.229 26.345 174.479 26.505 174.779 26.625C175.079 26.745 175.489 26.875 176.009 27.015C176.699 27.205 177.259 27.395 177.689 27.585C178.129 27.775 178.499 28.07 178.799 28.47C179.109 28.86 179.264 29.385 179.264 30.045C179.264 30.575 179.119 31.075 178.829 31.545C178.549 32.015 178.134 32.395 177.584 32.685C177.044 32.965 176.404 33.105 175.664 33.105ZM188.856 28.665C188.856 28.975 188.836 29.255 188.796 29.505H182.481C182.531 30.165 182.776 30.695 183.216 31.095C183.656 31.495 184.196 31.695 184.836 31.695C185.756 31.695 186.406 31.31 186.786 30.54H188.631C188.381 31.3 187.926 31.925 187.266 32.415C186.616 32.895 185.806 33.135 184.836 33.135C184.046 33.135 183.336 32.96 182.706 32.61C182.086 32.25 181.596 31.75 181.236 31.11C180.886 30.46 180.711 29.71 180.711 28.86C180.711 28.01 180.881 27.265 181.221 26.625C181.571 25.975 182.056 25.475 182.676 25.125C183.306 24.775 184.026 24.6 184.836 24.6C185.616 24.6 186.311 24.77 186.921 25.11C187.531 25.45 188.006 25.93 188.346 26.55C188.686 27.16 188.856 27.865 188.856 28.665ZM187.071 28.125C187.061 27.495 186.836 26.99 186.396 26.61C185.956 26.23 185.411 26.04 184.761 26.04C184.171 26.04 183.666 26.23 183.246 26.61C182.826 26.98 182.576 27.485 182.496 28.125H187.071ZM198.114 28.665C198.114 28.975 198.094 29.255 198.054 29.505H191.739C191.789 30.165 192.034 30.695 192.474 31.095C192.914 31.495 193.454 31.695 194.094 31.695C195.014 31.695 195.664 31.31 196.044 30.54H197.889C197.639 31.3 197.184 31.925 196.524 32.415C195.874 32.895 195.064 33.135 194.094 33.135C193.304 33.135 192.594 32.96 191.964 32.61C191.344 32.25 190.854 31.75 190.494 31.11C190.144 30.46 189.969 29.71 189.969 28.86C189.969 28.01 190.139 27.265 190.479 26.625C190.829 25.975 191.314 25.475 191.934 25.125C192.564 24.775 193.284 24.6 194.094 24.6C194.874 24.6 195.569 24.77 196.179 25.11C196.789 25.45 197.264 25.93 197.604 26.55C197.944 27.16 198.114 27.865 198.114 28.665ZM196.329 28.125C196.319 27.495 196.094 26.99 195.654 26.61C195.214 26.23 194.669 26.04 194.019 26.04C193.429 26.04 192.924 26.23 192.504 26.61C192.084 26.98 191.834 27.485 191.754 28.125H196.329ZM206.693 33.135C206.043 33.135 205.458 33.02 204.938 32.79C204.428 32.55 204.023 32.23 203.723 31.83C203.423 31.42 203.263 30.965 203.243 30.465H205.013C205.043 30.815 205.208 31.11 205.508 31.35C205.818 31.58 206.203 31.695 206.663 31.695C207.143 31.695 207.513 31.605 207.773 31.425C208.043 31.235 208.178 30.995 208.178 30.705C208.178 30.395 208.028 30.165 207.728 30.015C207.438 29.865 206.973 29.7 206.333 29.52C205.713 29.35 205.208 29.185 204.818 29.025C204.428 28.865 204.088 28.62 203.798 28.29C203.518 27.96 203.378 27.525 203.378 26.985C203.378 26.545 203.508 26.145 203.768 25.785C204.028 25.415 204.398 25.125 204.878 24.915C205.368 24.705 205.928 24.6 206.558 24.6C207.498 24.6 208.253 24.84 208.823 25.32C209.403 25.79 209.713 26.435 209.753 27.255H208.043C208.013 26.885 207.863 26.59 207.593 26.37C207.323 26.15 206.958 26.04 206.498 26.04C206.048 26.04 205.703 26.125 205.463 26.295C205.223 26.465 205.103 26.69 205.103 26.97C205.103 27.19 205.183 27.375 205.343 27.525C205.503 27.675 205.698 27.795 205.928 27.885C206.158 27.965 206.498 28.07 206.948 28.2C207.548 28.36 208.038 28.525 208.418 28.695C208.808 28.855 209.143 29.095 209.423 29.415C209.703 29.735 209.848 30.16 209.858 30.69C209.858 31.16 209.728 31.58 209.468 31.95C209.208 32.32 208.838 32.61 208.358 32.82C207.888 33.03 207.333 33.135 206.693 33.135ZM215.291 33.135C214.511 33.135 213.806 32.96 213.176 32.61C212.546 32.25 212.051 31.75 211.691 31.11C211.331 30.46 211.151 29.71 211.151 28.86C211.151 28.02 211.336 27.275 211.706 26.625C212.076 25.975 212.581 25.475 213.221 25.125C213.861 24.775 214.576 24.6 215.366 24.6C216.156 24.6 216.871 24.775 217.511 25.125C218.151 25.475 218.656 25.975 219.026 26.625C219.396 27.275 219.581 28.02 219.581 28.86C219.581 29.7 219.391 30.445 219.011 31.095C218.631 31.745 218.111 32.25 217.451 32.61C216.801 32.96 216.081 33.135 215.291 33.135ZM215.291 31.65C215.731 31.65 216.141 31.545 216.521 31.335C216.911 31.125 217.226 30.81 217.466 30.39C217.706 29.97 217.826 29.46 217.826 28.86C217.826 28.26 217.711 27.755 217.481 27.345C217.251 26.925 216.946 26.61 216.566 26.4C216.186 26.19 215.776 26.085 215.336 26.085C214.896 26.085 214.486 26.19 214.106 26.4C213.736 26.61 213.441 26.925 213.221 27.345C213.001 27.755 212.891 28.26 212.891 28.86C212.891 29.75 213.116 30.44 213.566 30.93C214.026 31.41 214.601 31.65 215.291 31.65ZM228.756 24.735V33H227.046V32.025C226.776 32.365 226.421 32.635 225.981 32.835C225.551 33.025 225.091 33.12 224.601 33.12C223.951 33.12 223.366 32.985 222.846 32.715C222.336 32.445 221.931 32.045 221.631 31.515C221.341 30.985 221.196 30.345 221.196 29.595V24.735H222.891V29.34C222.891 30.08 223.076 30.65 223.446 31.05C223.816 31.44 224.321 31.635 224.961 31.635C225.601 31.635 226.106 31.44 226.476 31.05C226.856 30.65 227.046 30.08 227.046 29.34V24.735H228.756ZM232.723 25.935C232.973 25.515 233.303 25.19 233.713 24.96C234.133 24.72 234.628 24.6 235.198 24.6V26.37H234.763C234.093 26.37 233.583 26.54 233.233 26.88C232.893 27.22 232.723 27.81 232.723 28.65V33H231.013V24.735H232.723V25.935ZM236.2 28.86C236.2 28.01 236.37 27.265 236.71 26.625C237.06 25.975 237.54 25.475 238.15 25.125C238.76 24.775 239.46 24.6 240.25 24.6C241.25 24.6 242.075 24.84 242.725 25.32C243.385 25.79 243.83 26.465 244.06 27.345H242.215C242.065 26.935 241.825 26.615 241.495 26.385C241.165 26.155 240.75 26.04 240.25 26.04C239.55 26.04 238.99 26.29 238.57 26.79C238.16 27.28 237.955 27.97 237.955 28.86C237.955 29.75 238.16 30.445 238.57 30.945C238.99 31.445 239.55 31.695 240.25 31.695C241.24 31.695 241.895 31.26 242.215 30.39H244.06C243.82 31.23 243.37 31.9 242.71 32.4C242.05 32.89 241.23 33.135 240.25 33.135C239.46 33.135 238.76 32.96 238.15 32.61C237.54 32.25 237.06 31.75 236.71 31.11C236.37 30.46 236.2 29.71 236.2 28.86ZM253.339 28.665C253.339 28.975 253.319 29.255 253.279 29.505H246.964C247.014 30.165 247.259 30.695 247.699 31.095C248.139 31.495 248.679 31.695 249.319 31.695C250.239 31.695 250.889 31.31 251.269 30.54H253.114C252.864 31.3 252.409 31.925 251.749 32.415C251.099 32.895 250.289 33.135 249.319 33.135C248.529 33.135 247.819 32.96 247.189 32.61C246.569 32.25 246.079 31.75 245.719 31.11C245.369 30.46 245.194 29.71 245.194 28.86C245.194 28.01 245.364 27.265 245.704 26.625C246.054 25.975 246.539 25.475 247.159 25.125C247.789 24.775 248.509 24.6 249.319 24.6C250.099 24.6 250.794 24.77 251.404 25.11C252.014 25.45 252.489 25.93 252.829 26.55C253.169 27.16 253.339 27.865 253.339 28.665ZM251.554 28.125C251.544 27.495 251.319 26.99 250.879 26.61C250.439 26.23 249.894 26.04 249.244 26.04C248.654 26.04 248.149 26.23 247.729 26.61C247.309 26.98 247.059 27.485 246.979 28.125H251.554Z" fill="#6070FF"/>
<g clip-path="url(#clip0_39_513)">
<g clip-path="url(#clip1_39_513)">
<path d="M284.999 25.4611C284.999 24.3212 284.633 23.2504 283.934 22.3178C284.2 21.4197 284.267 20.2798 284.2 18.9672C284.167 18.4145 283.735 18 283.202 18C282.903 18 280.374 18.0345 278.91 19.3817C277.646 19.1399 276.315 19.1399 275.017 19.3817C273.587 18.0345 271.058 18 270.725 18C270.193 18 269.76 18.4145 269.727 18.9672C269.627 20.2798 269.727 21.4197 269.993 22.3178C269.295 23.285 268.929 24.3558 268.929 25.4611C268.929 27.8791 270.725 30.0553 273.454 31.0915C273.354 31.2988 273.287 31.5406 273.221 31.7824C270.326 31.4715 268.962 28.7427 268.895 28.639C268.662 28.1209 268.064 27.9136 267.564 28.19C267.065 28.4318 266.866 29.0535 267.132 29.5717C267.199 29.7444 269.028 33.4404 273.054 33.8549V36.9637C273.054 37.5509 273.487 38 274.052 38H279.875C280.441 38 280.873 37.5509 280.873 36.9637V32.8532C280.873 32.2314 280.74 31.6442 280.507 31.1261C283.202 30.0553 284.999 27.9136 284.999 25.4611Z" fill="#6070FF"/>
</g>
</g>
<rect x="157.5" y="4.5" width="144" height="47" rx="7.5" stroke="#6070FF"/>
<defs>
<clipPath id="clip0_39_513">
<rect width="18" height="20" fill="white" transform="translate(267 18)"/>
</clipPath>
<clipPath id="clip1_39_513">
<rect width="18" height="20" fill="white" transform="translate(267 18)"/>
</clipPath>
</defs>
</svg>
